<svg xmlns="http://www.w3.org/2000/svg" xmlns:xlink="http://www.w3.org/1999/xlink" xmlns:svgjs="http://svgjs.dev/svgjs" version="1.1" viewBox="44.23 43.73 39.21 40.21"><g transform="matrix(0.8046875,0,0,0.8046875,12.333870967741937,12.333870967741937)"><svg xmlns="http://www.w3.org/2000/svg" xmlns:xlink="http://www.w3.org/1999/xlink" viewBox="0 0 155 155" data-background-color="#000000" preserveAspectRatio="xMidYMid meet" height="128" width="128"><g id="tight-bounds" transform="matrix(1,0,0,1,0.25,0.25)"><svg viewBox="0 0 154.5 154.5" height="154.5" width="154.5"><g><svg/></g><g><svg viewBox="0 0 154.5 154.5" height="154.5" width="154.5"><g transform="matrix(1,0,0,1,47.746370999999996,58.23480648670213)"><svg viewBox="0 0 59.007258 38.03038702659574" height="38.03038702659574" width="59.007258"><g><svg viewBox="0 0 59.007258 38.03038702659574" height="38.03038702659574" width="59.007258"><g><svg viewBox="0 0 59.007258 38.03038702659574" height="38.03038702659574" width="59.007258"><g id="textblocktransform"><svg viewBox="0 0 59.007258 38.03038702659574" height="38.03038702659574" width="59.007258" id="textblock"><g><svg viewBox="0 0 59.007258 38.03038702659574" height="38.03038702659574" width="59.007258"><g transform="matrix(1,0,0,1,0,0)"><svg width="59.007258" viewBox="0.45 -35.6 56.4 36.35" height="38.03038702659574" data-palette-color="#ff80b5"><g class="wordmark-text-0" data-fill-palette-color="primary" id="text-0"><path d="M12.35 0.75L12.35 0.75Q9.45 0.75 7.28-0.2 5.1-1.15 3.63-2.68 2.15-4.2 1.38-5.88 0.6-7.55 0.45-9L0.45-9 7.45-11.35Q8.1-9.05 9.35-7.85 10.6-6.65 12.45-6.65L12.45-6.65Q13.85-6.65 15-7.28 16.15-7.9 16.85-9.22 17.55-10.55 17.55-12.6L17.55-12.6 17.55-35 25.6-35 25.6-10.5Q25.6-7.95 24.65-5.88 23.7-3.8 21.95-2.33 20.2-0.85 17.75-0.05 15.3 0.75 12.35 0.75ZM43.9 0.6L43.9 0.6Q41.35 0.6 39.02-0.08 36.7-0.75 34.82-1.93 32.95-3.1 31.75-4.58 30.55-6.05 30.25-7.75L30.25-7.75 38.2-10Q38.75-8.55 40.12-7.48 41.5-6.4 43.6-6.35L43.6-6.35Q45.65-6.3 47.02-7.3 48.4-8.3 48.4-9.9L48.4-9.9Q48.4-11.15 47.42-12.1 46.45-13.05 44.65-13.55L44.65-13.55 39.7-14.8Q37.1-15.45 35.17-16.85 33.25-18.25 32.17-20.28 31.1-22.3 31.1-24.9L31.1-24.9Q31.1-29.95 34.45-32.77 37.8-35.6 43.9-35.6L43.9-35.6Q47.25-35.6 49.75-34.68 52.25-33.75 54.02-31.95 55.8-30.15 56.85-27.45L56.85-27.45 48.95-25.1Q48.55-26.45 47.22-27.55 45.9-28.65 43.8-28.65L43.8-28.65Q41.7-28.65 40.52-27.7 39.35-26.75 39.35-24.95L39.35-24.95Q39.35-23.7 40.3-22.88 41.25-22.05 42.9-21.65L42.9-21.65 47.85-20.4Q52.1-19.35 54.47-16.48 56.85-13.6 56.85-9.95L56.85-9.95Q56.85-6.65 55.32-4.3 53.8-1.95 50.9-0.68 48 0.6 43.9 0.6Z" fill="#ff80b5" data-fill-palette-color="primary"/></g></svg></g></svg></g></svg></g></svg></g><g/></svg></g></svg></g><g><path d="M67.931 49.257A29.504 29.504 0 0 1 86.569 49.257L83.139 49.257A26.074 26.074 0 0 0 71.361 49.257L67.931 49.257M67.931 105.243A29.504 29.504 0 0 0 86.569 105.243L83.139 105.243A26.074 26.074 0 0 1 71.361 105.243L67.931 105.243" fill="#9089fc" stroke="transparent" data-fill-palette-color="tertiary"/></g></svg></g><defs/></svg><rect width="154.5" height="154.5" fill="none" stroke="none" visibility="hidden"/></g></svg></g></svg>